<svg width="116" height="43" viewBox="0 0 116 43" fill="none" xmlns="http://www.w3.org/2000/svg">
<path d="M18.5972 21.5C18.5972 18.8088 20.4046 16.6029 22.9958 16.6029C24.9774 16.6029 26.6323 17.7059 27.0461 19.3382H31.5536C31.3141 15.5441 27.8953 12.5 23.1047 12.5C18.0746 12.5 14.2856 16.2059 14.2856 21.5C14.2856 26.794 18.0746 30.4999 23.1047 30.4999C27.9824 30.4999 31.4447 27.4558 31.5536 23.3088H27.0461C26.6977 25.2058 25.1298 26.397 22.9958 26.397C20.6223 26.4191 18.5972 24.2794 18.5972 21.5ZM47.7546 22.3602C45.0326 23.022 43.1382 25.3602 42.7027 29.1543C42.2671 25.3823 40.3727 23.022 37.6507 22.3602C37.1717 19.4044 39.763 16.8015 42.7027 16.8015C45.6423 16.8235 48.2119 19.4044 47.7546 22.3602ZM51.5653 21.5C51.5653 16.5367 47.5804 12.5 42.6809 12.5C37.7814 12.5 33.7965 16.5367 33.7965 21.5C33.7965 26.4632 37.7814 30.4999 42.6809 30.4999C47.6021 30.522 51.5653 26.4852 51.5653 21.5ZM58.6205 17.1764H65.4798V13.1838H53.8953V29.8161H58.6205V17.1764ZM79.4597 21.5C79.4597 24.1249 77.5217 26.0661 75.1917 26.0661C72.9053 26.0661 70.9237 24.147 70.9237 21.5C70.9237 18.875 72.9053 16.9338 75.1917 16.9338C77.5217 16.9559 79.4597 18.875 79.4597 21.5ZM79.133 29.8382H83.8583V13.1838H79.133V15.0147C77.9136 13.4926 76.3022 12.8529 74.5602 12.8529C70.118 12.8529 66.5904 16.3162 66.5904 21.522C66.5904 26.7279 70.118 30.1911 74.5602 30.1911C76.3022 30.1911 77.9136 29.5514 79.133 28.0293V29.8382ZM101.344 17.7279C101.344 14.9706 99.0141 12.7426 94.3106 12.7426C89.3022 12.7426 86.7109 15.5882 86.7109 19.0956H91.3055C91.3055 17.2647 92.3072 16.3162 94.2235 16.3162C96.0308 16.3162 96.8147 16.9779 96.8147 18.0147C96.8147 19.0514 96.2486 19.7794 94.8332 19.7794H92.2201V22.7794H94.7678C96.3792 22.7794 97.0543 23.4852 97.0543 24.6323C97.0543 25.7132 96.3575 26.7499 94.2888 26.7499C92.0677 26.7499 91.066 25.6029 91.066 23.7058H86.4714C86.4714 27.9852 89.4546 30.2793 94.2888 30.2793C99.0576 30.2793 101.714 28.2499 101.714 25.0073C101.714 23.3308 100.843 22.0955 99.1665 21.3897C100.647 20.6397 101.344 19.2058 101.344 17.7279Z" fill="#000078"/>
</svg>
